<svg width="217" height="61" viewBox="0 0 217 61" fill="none" xmlns="http://www.w3.org/2000/svg">
<path fill-rule="evenodd" clip-rule="evenodd" d="M7.60526 1.32715H209.395C211.811 1.32715 213.761 2.78375 215.018 4.65168C216.283 6.53201 217 9.01591 217 11.6605V49.9938C217 52.6384 216.283 55.1223 215.018 57.0026C213.761 58.8706 211.811 60.3271 209.395 60.3271H7.60527C5.18898 60.3271 3.23866 58.8706 1.98223 57.0026C0.71746 55.1223 0 52.6384 0 49.9938V11.6605C0 9.01591 0.717459 6.53201 1.98223 4.65168C3.23866 2.78375 5.18897 1.32715 7.60526 1.32715ZM7.60526 3.32715C4.50956 3.32715 2 7.05811 2 11.6605V49.9938C2 54.5962 4.50957 58.3271 7.60527 58.3271H209.395C212.49 58.3271 215 54.5962 215 49.9938V11.6605C215 7.05811 212.49 3.32715 209.395 3.32715H7.60526Z" fill="#6F9DE2"/>
<path fill-rule="evenodd" clip-rule="evenodd" d="M30.8688 42.3695C31.4884 42.0711 32.0988 41.7237 32.7 41.3271L33.1 43.3271H39.3V15.3271H32.3V22.1271H24.1C22.1 22.1271 20.5266 22.7005 19.38 23.8471C18.26 24.9671 17.7 26.5271 17.7 28.5271V37.7271C17.7 39.5405 18.2466 40.9938 19.34 42.0872C20.4333 43.1805 21.8866 43.7271 23.7 43.7271H25.5C26.4066 43.7271 27.5133 43.5405 28.82 43.1672C29.5137 42.959 30.1967 42.6931 30.8688 42.3695ZM30.3 20.1271H24.1C21.7008 20.1271 19.5711 20.8276 17.9657 22.4329C16.3783 24.0204 15.7 26.1434 15.7 28.5271V37.7271C15.7 39.9721 16.3928 41.9684 17.9257 43.5014C19.4587 45.0343 21.455 45.7271 23.7 45.7271H25.5C26.6602 45.7271 27.9636 45.4918 29.3694 45.0902L29.382 45.0866L29.3946 45.0828C30.0317 44.8917 30.6575 44.6592 31.2722 44.3863L31.4603 45.3271H41.3V40.4957C41.6562 41.6198 42.2543 42.6347 43.121 43.5014C44.654 45.0343 46.6503 45.7271 48.8953 45.7271C53.1646 45.7271 57.9015 45.4553 63.1014 44.9165L64.8953 44.7306V37.5271H65.6953V30.9885L71.1061 45.3271H81.872L87.0889 31.5022C87.3918 32.9446 88.0517 34.2351 89.1179 35.3014C89.2743 35.4578 89.4356 35.6054 89.6014 35.7445C89.5476 35.7406 89.4936 35.7366 89.4395 35.7326L87.2921 35.5739V44.7398L89.096 44.9175C94.565 45.4563 99.6977 45.7271 104.492 45.7271C106.737 45.7271 108.733 45.0343 110.266 43.5014C111.799 41.9684 112.492 39.9721 112.492 37.7271V36.1272C112.492 33.8822 111.799 31.8859 110.266 30.3529C109.869 29.9554 109.44 29.6143 108.984 29.3272H110.095V29.5271H112.495V37.7271C112.495 39.9721 113.188 41.9684 114.721 43.5014C116.254 45.0343 118.25 45.7271 120.495 45.7271C123.047 45.7271 125.649 45.59 128.3 45.3166L130.095 45.1316V44.1487C131.509 45.2308 133.231 45.7271 135.131 45.7271H136.531C137.691 45.7271 138.995 45.4918 140.401 45.0902L140.413 45.0866L140.426 45.0828C141.063 44.8917 141.689 44.6592 142.303 44.3863L142.492 45.3271H152.331V40.3176C152.682 41.0404 153.151 41.7058 153.746 42.3014C153.799 42.3543 153.852 42.4062 153.906 42.4571L152.72 42.3639V51.5306L154.514 51.7165C159.714 52.2553 164.451 52.5271 168.72 52.5271C170.965 52.5271 172.962 51.8343 174.494 50.3014C176.027 48.7684 176.72 46.7721 176.72 44.5272V40.4658C177.075 41.6019 177.676 42.627 178.551 43.5014C180.084 45.0343 182.08 45.7271 184.325 45.7271C188.594 45.7271 193.331 45.4553 198.531 44.9165L200.325 44.7306V37.5271H201.125V28.1271C201.125 25.7385 200.43 23.6162 198.819 22.033C197.236 20.4222 195.114 19.7271 192.725 19.7271H184.725C182.326 19.7271 180.196 20.4276 178.591 22.0329C177.686 22.9372 177.077 24.0153 176.72 25.2163V20.1271H159.92C157.521 20.1271 155.391 20.8276 153.786 22.4329C152.966 23.2529 152.389 24.2158 152.022 25.2837C151.682 24.0297 151.055 22.9024 150.105 21.9529C148.572 20.42 146.576 19.7271 144.331 19.7271C140.323 19.7271 135.849 19.9996 130.914 20.539L129.131 20.7338V29.6561L129.97 29.6036C129.758 29.7731 129.554 29.9561 129.357 30.1529C127.824 31.6859 127.131 33.6822 127.131 35.9272V36.1272H123.495V29.5271H128.495V20.1271H123.495V15.3271H113.601L112.801 20.1271H94.8921C93.5063 20.1271 92.2152 20.3912 91.0694 20.9538L91.3814 20.1271H79.6283L76.489 29.9546L73.3497 20.1271H61.5966L61.8691 20.8492C60.5423 20.0751 58.9855 19.7271 57.2953 19.7271H49.2953C46.8961 19.7271 44.7664 20.4276 43.161 22.0329C42.2647 22.9293 41.6581 23.9965 41.3 25.185V13.3271H30.3V20.1271ZM61.9753 23.4472C60.8553 22.3005 59.2953 21.7271 57.2953 21.7271H49.2953C47.2953 21.7271 45.7219 22.3005 44.5753 23.4472C43.4553 24.5672 42.8953 26.1271 42.8953 28.1271V37.7271C42.8953 39.5405 43.4419 40.9938 44.5353 42.0872C45.6286 43.1805 47.0819 43.7271 48.8953 43.7271C53.0819 43.7271 57.7486 43.4605 62.8953 42.9272V37.9272C62.2061 37.9813 61.5395 38.0317 60.8953 38.0785C56.7781 38.3776 53.5781 38.5271 51.2953 38.5271C50.8953 38.5271 50.5619 38.3938 50.2953 38.1272C50.1231 37.9549 50.0065 37.755 49.9455 37.5271C49.912 37.4022 49.8953 37.2689 49.8953 37.1272V35.5271H63.6953V28.1271C63.6953 26.1271 63.1219 24.5672 61.9753 23.4472ZM72.489 43.3271H80.489L88.489 22.1271H81.089L76.489 36.5272L71.889 22.1271H64.489L72.489 43.3271ZM114.495 22.1271H112.095V27.5271H114.495V37.7271C114.495 39.5405 115.042 40.9938 116.135 42.0872C117.229 43.1805 118.682 43.7271 120.495 43.7271C122.975 43.7271 125.509 43.5938 128.095 43.3271V38.1272H122.895C122.495 38.1272 122.162 37.9938 121.895 37.7271C121.629 37.4605 121.495 37.1272 121.495 36.7271V27.5271H126.495V22.1271H121.495V17.3271H115.295L114.495 22.1271ZM129.131 37.7271C129.131 37.8625 129.134 37.9958 129.14 38.1272C129.197 39.3449 129.515 40.3903 130.095 41.2632C130.291 41.5574 130.516 41.8321 130.771 42.0872C131.865 43.1805 133.318 43.7271 135.131 43.7271H136.531C137.438 43.7271 138.545 43.5405 139.851 43.1672C140.545 42.959 141.228 42.6931 141.9 42.3695C142.52 42.0711 143.13 41.7237 143.731 41.3271L144.131 43.3271H150.331V27.7271C150.331 25.9138 149.785 24.4605 148.691 23.3671C147.598 22.2738 146.145 21.7271 144.331 21.7271C140.411 21.7271 136.011 21.9938 131.131 22.5271V27.5271C131.715 27.4907 132.381 27.4459 133.131 27.3928C134.026 27.3294 135.039 27.2542 136.171 27.1671C138.278 27.0071 140.198 26.9271 141.931 26.9271C142.331 26.9271 142.665 27.0605 142.931 27.3272C143.103 27.4994 143.22 27.6994 143.281 27.9272C143.314 28.0521 143.331 28.1854 143.331 28.3271V29.9272H135.131C133.318 29.9272 131.865 30.4738 130.771 31.5672C129.678 32.6605 129.131 34.1138 129.131 35.9272V37.7271ZM197.405 23.4472C196.285 22.3005 194.725 21.7271 192.725 21.7271H184.725C182.725 21.7271 181.152 22.3005 180.005 23.4472C178.885 24.5672 178.325 26.1271 178.325 28.1271V37.7271C178.325 39.5405 178.872 40.9938 179.965 42.0872C181.058 43.1805 182.512 43.7271 184.325 43.7271C188.512 43.7271 193.178 43.4605 198.325 42.9272V37.9272C197.636 37.9813 196.969 38.0317 196.325 38.0785C192.208 38.3776 189.008 38.5271 186.725 38.5271C186.325 38.5271 185.992 38.3938 185.725 38.1272C185.553 37.9549 185.436 37.755 185.375 37.5271C185.342 37.4022 185.325 37.2689 185.325 37.1272V35.5271H199.125V28.1271C199.125 26.1271 198.552 24.5672 197.405 23.4472ZM165.72 42.0968C163.948 42.3837 162.348 42.5272 160.92 42.5272H159.52C157.707 42.5272 156.254 41.9805 155.16 40.8871C154.067 39.7938 153.52 38.3405 153.52 36.5272V28.5271C153.52 26.5271 154.08 24.9671 155.2 23.8471C156.347 22.7005 157.92 22.1271 159.92 22.1271H174.72V44.5272C174.72 46.3405 174.174 47.7938 173.08 48.8871C171.987 49.9805 170.534 50.5271 168.72 50.5271C164.534 50.5271 159.867 50.2605 154.72 49.7271V44.5272C155.409 44.5813 156.076 44.6317 156.72 44.6785C160.837 44.9776 164.037 45.1272 166.32 45.1272C166.72 45.1272 167.054 44.9938 167.32 44.7271C167.578 44.4696 167.711 44.1497 167.72 43.7677C167.72 43.7543 167.72 43.7408 167.72 43.7271V41.7271C167.031 41.8693 166.364 41.9925 165.72 42.0968ZM103.492 35.5271V36.9272C103.492 37.1474 103.452 37.3474 103.371 37.5271C103.305 37.674 103.212 37.8073 103.092 37.9272C102.825 38.1938 102.492 38.3271 102.092 38.3271C99.367 38.3271 95.767 38.1746 91.2921 37.8694C90.6438 37.8252 89.9772 37.7778 89.2921 37.7271V42.9272C94.7055 43.4605 99.7721 43.7271 104.492 43.7271C106.305 43.7271 107.759 43.1805 108.852 42.0872C109.945 40.9938 110.492 39.5405 110.492 37.7271V36.1272C110.492 34.3138 109.945 32.8605 108.852 31.7672C107.759 30.6738 106.305 30.1271 104.492 30.1271H97.2921C96.8921 30.1271 96.5588 29.9938 96.2921 29.7271C96.0255 29.4605 95.8921 29.1271 95.8921 28.7271C95.8921 28.3271 96.0255 27.9938 96.2921 27.7271C96.5588 27.4605 96.8921 27.3272 97.2921 27.3272H108.492V22.1271H94.8921C93.0788 22.1271 91.6255 22.6738 90.5321 23.7671C89.4388 24.8605 88.8921 26.3138 88.8921 28.1271V29.5271C88.8921 31.3405 89.4388 32.7938 90.5321 33.8871C91.6255 34.9805 93.0788 35.5271 94.8921 35.5271H103.492ZM30.3 35.5847V29.5271H26.7V35.9272H27.5C28.317 35.9272 29.248 35.8187 30.3 35.5847ZM26.3 27.5271C25.2333 27.5271 24.7 28.0605 24.7 29.1271V36.5272C24.7 36.9272 24.8333 37.2605 25.1 37.5271C25.3666 37.7938 25.7 37.9272 26.1 37.9272H27.5C28.9133 37.9272 30.5133 37.6605 32.3 37.1272V27.5271H26.3ZM49.8953 30.5271V28.3271C49.8953 27.2605 50.4286 26.7271 51.4953 26.7271H55.0953C56.1619 26.7271 56.6953 27.2605 56.6953 28.3271V30.5271H49.8953ZM137.531 34.9272C137.131 34.9272 136.798 35.0605 136.531 35.3271C136.265 35.5938 136.131 35.9271 136.131 36.3271V36.7271C136.131 37.1272 136.265 37.4605 136.531 37.7271C136.798 37.9938 137.131 38.1272 137.531 38.1272H138.531C139.945 38.1272 141.545 37.8605 143.331 37.3271V34.9272H137.531ZM165.72 34.9868V29.5271H162.52V35.1272H162.92C163.888 35.1272 164.821 35.08 165.72 34.9868ZM185.325 30.5271V28.3271C185.325 27.2605 185.858 26.7271 186.925 26.7271H190.525C191.592 26.7271 192.125 27.2605 192.125 28.3271V30.5271H185.325ZM162.92 37.1272C164.6 37.1272 166.2 36.9938 167.72 36.7271V27.5271H162.12C161.054 27.5271 160.52 28.0605 160.52 29.1271V35.7271C160.52 36.1272 160.654 36.4605 160.92 36.7271C161.187 36.9938 161.52 37.1272 161.92 37.1272H162.92Z" fill="#6F9DE2"/>
</svg>
